<?xml version="1.0" standalone="no"?>
<!DOCTYPE svg PUBLIC "-//W3C//DTD SVG 20010904//EN"
 "http://www.w3.org/TR/2001/REC-SVG-20010904/DTD/svg10.dtd">
<svg version="1.0" xmlns="http://www.w3.org/2000/svg"
 width="260.000000pt" height="260.000000pt" viewBox="0 0 260.000000 260.000000"
 preserveAspectRatio="xMidYMid meet">
<metadata>
Created by potrace 1.11, written by Peter Selinger 2001-2013
</metadata>
<g transform="translate(0.000000,260.000000) scale(0.100000,-0.100000)"
fill="#000000" stroke="none">
<path d="M1819 2576 c-145 -42 -260 -154 -358 -353 -58 -118 -76 -178 -128
-425 -16 -77 -16 -78 -53 -88 -162 -44 -355 -36 -436 16 -23 16 -69 11 -81 -9
-16 -26 -13 -85 6 -129 44 -104 173 -153 397 -150 90 1 92 1 87 -21 -51 -221
-124 -469 -186 -627 -60 -151 -79 -186 -102 -182 -55 10 -244 11 -279 2 -150
-38 -241 -114 -270 -226 -42 -160 58 -277 233 -275 31 0 65 2 76 5 101 21 187
61 261 121 l40 33 85 -58 c231 -159 453 -226 611 -185 128 33 227 150 246 295
18 127 -28 162 -117 91 -67 -52 -148 -82 -243 -88 -108 -8 -170 14 -336 120
l-62 40 25 41 c114 186 207 428 300 791 53 205 69 244 98 245 5 0 48 25 95 56
149 97 303 267 379 419 54 108 67 161 67 276 0 94 -3 111 -27 161 -18 37 -41
65 -69 84 -37 26 -51 29 -127 31 -48 1 -106 -4 -132 -11z m76 -323 c-6 -97
-61 -196 -164 -297 -56 -56 -56 -59 -14 84 32 108 77 193 122 231 50 41 59 38
56 -18z m-1107 -1899 c-9 -8 -98 -34 -98 -28 0 8 63 33 84 34 11 0 17 -3 14
-6z"/>
</g>
</svg>
